<svg width="28" height="30" viewBox="0 0 28 30" fill="none" xmlns="http://www.w3.org/2000/svg">
<path d="M27.9995 14.9357C28.028 18.2955 26.9395 21.5671 24.91 24.2215C22.8805 26.8759 20.0285 28.7581 16.8149 29.564C13.6013 30.3699 10.2139 30.0524 7.20007 28.6627C4.18624 27.273 1.7221 24.8924 0.20585 21.9056C0.0999892 21.7123 0.03328 21.4994 0.00964422 21.2795C-0.0139915 21.0596 0.00592326 20.8371 0.0682175 20.6251C0.130512 20.4131 0.233928 20.216 0.372387 20.0451C0.510846 19.8743 0.681553 19.7333 0.874472 19.6304C1.06739 19.5275 1.27863 19.4648 1.49577 19.446C1.7129 19.4272 1.93156 19.4526 2.13887 19.5208C2.34619 19.589 2.53798 19.6985 2.70298 19.843C2.86797 19.9876 3.00284 20.1641 3.09965 20.3623C3.79058 21.6797 4.7228 22.8513 5.84632 23.8141C7.53468 25.2733 9.60434 26.2033 11.8037 26.4908C14.003 26.7784 16.2373 26.4112 18.2349 25.4339C20.2324 24.4566 21.9073 22.9113 23.0557 20.9858C24.2042 19.0603 24.7769 16.8377 24.7041 14.588C24.6312 12.3383 23.9161 10.1586 22.6456 8.3138C21.3751 6.46899 19.604 5.03857 17.5475 4.19644C15.4911 3.35432 13.2379 3.13676 11.0619 3.57022C8.88589 4.00368 6.88082 5.06949 5.29044 6.63807H8.38044C8.81405 6.63807 9.22989 6.81291 9.5365 7.12413C9.84311 7.43535 10.0154 7.85745 10.0154 8.29759C10.0154 8.73772 9.84311 9.15982 9.5365 9.47104C9.22989 9.78226 8.81405 9.9571 8.38044 9.9571H1.84077C1.40716 9.9571 0.991313 9.78226 0.684706 9.47104C0.3781 9.15982 0.20585 8.73772 0.20585 8.29759V1.65952C0.20585 1.21939 0.3781 0.797281 0.684706 0.486061C0.991313 0.174841 1.40716 0 1.84077 0C2.27438 0 2.69022 0.174841 2.99683 0.486061C3.30344 0.797281 3.47569 1.21939 3.47569 1.65952V3.81689C5.592 1.89552 8.21078 0.636695 11.0162 0.192261C13.8215 -0.252173 16.6937 0.136765 19.2861 1.31216C21.8786 2.48756 24.0807 4.3992 25.6268 6.81653C27.1728 9.23385 27.9969 12.0536 27.9995 14.9357Z" fill="#1D1D1D"/>
</svg>
